<svg width="1920" height="847" viewBox="0 0 1920 847" fill="none" xmlns="http://www.w3.org/2000/svg">
<g clip-path="url(#clip0_1_16)">
<rect width="1920" height="847" fill="white"/>
<rect width="1920" height="847" fill="#F1F1F1"/>
<g clip-path="url(#clip1_1_16)">
<path d="M-27.342 680.184C-18.6832 677.15 -10.0176 674.222 -1.50068 670.798C6.87824 667.407 14.8716 663.135 22.3467 658.054C36.5745 648.345 49.1606 636.126 64.6828 628.327C72.4207 624.233 80.9651 621.887 89.7212 621.451C89.8647 621.462 90.0017 621.516 90.1132 621.608C90.2246 621.7 90.3051 621.824 90.3432 621.963C90.3814 622.103 90.3753 622.25 90.3259 622.385C90.2766 622.521 90.1863 622.637 90.0678 622.718L67.4359 633.571C59.8931 637.206 52.5112 641.026 44.8792 644.602C43.8079 645.22 42.769 643.469 43.9088 642.921C51.4397 639.265 59.0971 635.923 66.7051 632.305L89.3969 621.556C89.6006 621.908 89.6188 622.368 89.7314 622.801C73.0151 623.156 58.5027 632.752 46.0616 643.034C39.2022 648.71 32.5483 654.599 25.307 659.803C18.0929 664.9 10.3205 669.156 2.13906 672.487C-7.30567 676.297 -16.9677 679.547 -26.7975 682.222C-28.0452 682.582 -28.5178 680.67 -27.3061 680.247L-27.342 680.184Z" fill="black" fill-opacity="0.08"/>
<path d="M-25.6702 679.607C-11.4786 677.638 0.525953 667.885 15.2951 668.82C22.4402 669.556 29.4712 671.185 36.2245 673.669C43.3153 676.008 50.2676 678.756 57.0463 681.9C64.6579 685.509 72.0616 689.548 79.2216 693.998C79.389 694.099 79.5197 694.252 79.5941 694.433C79.6686 694.615 79.6828 694.815 79.6347 695.004C79.5867 695.194 79.4788 695.362 79.3273 695.485C79.1758 695.607 78.9887 695.677 78.7938 695.683C71.208 695.581 63.4162 695.597 56.6073 691.892C49.7983 688.187 44.8803 681.62 38.0887 677.85C37.9052 677.746 37.7697 677.575 37.7119 677.372C37.6541 677.169 37.6788 676.952 37.7805 676.769C37.8823 676.585 38.0526 676.45 38.2543 676.394C38.4559 676.337 38.6722 676.363 38.8557 676.466C45.3714 680.091 50.5705 685.528 56.9659 689.278C63.3613 693.028 71.3271 693.741 78.8751 693.921C78.7285 694.476 78.5614 695.043 78.4268 695.619C72.192 691.848 65.7295 688.473 59.0777 685.514C52.3292 682.403 45.4109 679.681 38.357 677.363C31.6364 674.938 24.7083 673.149 17.6633 672.018C10.677 671.243 3.61745 672.142 -2.93478 674.642C-10.2909 677.174 -17.5314 680.524 -25.3908 680.995C-26.156 681.049 -26.3429 679.774 -25.5811 679.666L-25.6702 679.607Z" fill="black" fill-opacity="0.08"/>
<path d="M7.16727 668.588C13.4135 670.318 19.7803 671.563 26.2111 672.312C32.1795 672.854 38.1901 672.395 43.9958 670.953C54.7711 668.301 64.7861 663.238 75.5341 660.491C81.3758 658.871 87.4863 658.427 93.5143 659.185L93.0281 660.96C77.4771 656.79 60.9797 658.445 46.6278 665.615C42.5519 667.64 38.7319 670.143 35.2473 673.071C35.1344 673.191 34.9968 673.285 34.8441 673.346C34.6913 673.407 34.5269 673.435 34.3622 673.426C34.1975 673.418 34.0364 673.373 33.8899 673.297C33.7433 673.22 33.6148 673.113 33.5132 672.982C33.4116 672.851 33.3393 672.699 33.3011 672.538C33.263 672.377 33.26 672.21 33.2923 672.048C33.3246 671.886 33.3914 671.733 33.4883 671.599C33.5851 671.466 33.7096 671.356 33.8533 671.275C46.9337 661.192 63.1791 656.106 79.7076 656.92C84.3587 657.173 88.9738 657.911 93.4783 659.123C94.6513 659.442 94.1345 661.068 92.9922 660.898C81.7149 659.302 70.821 663.461 60.478 667.386C50.1351 671.31 39.2004 675.16 27.7062 674.188C20.6199 673.372 13.6161 671.925 6.77782 669.864C5.91007 669.646 6.26358 668.308 7.13133 668.526L7.16727 668.588Z" fill="black" fill-opacity="0.08"/>
<path d="M-26.7484 680.118C-21.8031 678.824 -16.6233 678.671 -11.5965 679.671C-6.34074 680.557 -1.16741 681.893 3.86674 683.663C15.2405 687.472 26.8048 691.087 37.8049 695.914C43.6264 698.278 49.0962 701.443 54.0568 705.317C54.6189 705.767 53.8355 706.552 53.294 706.089C48.8883 702.66 44.0183 699.881 38.8333 697.838C33.6828 695.721 28.2861 694.272 23.0169 692.472L5.87506 686.571C1.0724 684.852 -3.82641 683.421 -8.79523 682.286C-11.6597 681.645 -14.574 681.263 -17.5032 681.144C-20.4153 681.132 -23.3217 681.366 -26.1915 681.844C-26.4052 681.875 -26.6233 681.826 -26.8042 681.706C-26.9852 681.586 -27.1165 681.405 -27.1731 681.195C-27.2298 680.985 -27.2078 680.762 -27.1115 680.569C-27.0152 680.375 -26.8512 680.224 -26.6506 680.145L-26.7484 680.118Z" fill="black" fill-opacity="0.08"/>
</g>
<g clip-path="url(#clip2_1_16)">
<path d="M1825.47 667.979C1826.74 664.637 1828.73 661.616 1831.3 659.13C1833.87 656.644 1836.96 654.753 1840.34 653.59C1842.59 652.812 1844.73 651.626 1846.91 650.641C1844.91 649.708 1842.75 649.185 1840.55 649.104C1835.34 648.918 1830.41 646.696 1826.82 642.914C1826.12 641.855 1825.65 640.66 1825.44 639.407C1825.23 638.154 1825.29 636.872 1825.62 635.645C1826.27 633.258 1829.09 634.332 1830.89 635.082C1836.71 637.401 1843.1 639.072 1848.1 642.633C1854.66 647.382 1861.81 647.371 1869.04 648.279C1857.52 643.245 1847.85 634.733 1841.39 623.934C1839.93 621.404 1838.32 621.441 1836.02 622.443C1830.56 624.78 1824.4 624.864 1818.87 622.678C1813.34 620.491 1808.9 616.209 1806.5 610.764C1805.97 609.584 1805.73 607.51 1806.41 606.796C1807 606.415 1807.66 606.161 1808.35 606.049C1809.04 605.937 1809.74 605.969 1810.42 606.145C1814.16 606.837 1817.85 607.83 1821.56 608.716L1822.25 608.791L1821.64 608.423C1821.03 607.635 1820.35 606.897 1819.62 606.215C1814.76 601.881 1811.28 596.211 1809.62 589.914C1809.43 588.469 1809.49 587.003 1809.81 585.582C1811.02 585.733 1812.4 585.506 1813.38 586.006C1820.19 589.205 1826.18 593.929 1830.88 599.812C1829.9 595.633 1829.22 591.386 1828.87 587.107C1828.8 580.713 1826.76 574.494 1823.02 569.3C1821 565.682 1819.17 561.963 1817.53 558.158C1817.03 557.283 1815.51 556.122 1814.77 556.301C1800.44 559.816 1789.14 551.53 1776.98 546.594C1774.4 545.602 1774.48 543.077 1777.08 541.701C1779.23 540.507 1781.6 539.755 1784.04 539.488C1793.62 538.891 1803.16 541.07 1811.54 545.766C1809.84 540.642 1807.95 536.079 1806.83 531.344C1805.34 524.987 1804.85 518.522 1807.96 512.382C1809.42 509.535 1811.61 508.789 1813.41 510.798C1815.71 513.186 1817.64 515.902 1819.13 518.858C1821.09 523.106 1822.17 527.702 1822.31 532.374C1822.46 537.046 1821.66 541.698 1819.98 546.054C1819.17 548.043 1818.9 550.208 1819.19 552.335C1820.73 559.007 1823.62 565.291 1827.7 570.793C1828.9 563.871 1829.91 557.462 1831.24 551.187C1833.76 539.802 1837.98 528.863 1843.75 518.735C1844.49 517.643 1844.88 516.35 1844.86 515.029C1844.84 513.709 1844.42 512.425 1843.65 511.352C1841.57 508.137 1839.81 504.71 1837.79 501.463C1832.92 493.536 1827.59 486.194 1817.06 485.722C1816.73 485.687 1816.4 485.599 1816.1 485.462C1809.56 483.343 1804.06 478.845 1800.67 472.859C1799.17 470.255 1800.29 468.341 1803.25 468.098C1804.24 468.129 1805.22 468.277 1806.18 468.54C1813.97 470.117 1821.38 472.535 1826.98 477.889C1827.3 473.624 1827.88 469.383 1828.73 465.191C1829.17 463.501 1831.57 462.339 1833.09 460.94C1834.51 462.135 1835.71 463.58 1836.62 465.205C1838.98 472.723 1839.24 480.164 1834.76 487.212C1834.46 487.849 1834.32 488.547 1834.34 489.251C1834.36 489.955 1834.54 490.645 1834.87 491.265C1838.68 497.523 1842.71 503.634 1846.75 509.735C1846.93 510.051 1848.62 509.922 1848.71 509.695C1850.81 503.769 1853.76 497.947 1854.57 491.847C1856.04 480.533 1850.11 471.899 1842.03 464.585C1830.46 454.121 1808.83 447.66 1793.8 458.643C1792.08 459.806 1790.74 461.443 1789.94 463.356C1788.48 467.045 1786.44 470.471 1783.88 473.499C1779.17 478.334 1774.2 482.916 1769 487.226C1767.89 488.216 1765.75 489.401 1764.85 488.954C1764.11 488.479 1763.49 487.86 1763 487.135C1762.51 486.41 1762.18 485.593 1762.02 484.735C1761.59 482.018 1761.77 479.243 1762.54 476.606C1763.32 473.969 1764.66 471.536 1766.48 469.481C1770.21 464.699 1775.56 462.477 1780.88 460.103L1781.12 459.963L1780.88 460.103L1774.91 460.197C1771.01 460.317 1767.13 459.513 1763.58 457.851C1760.04 456.189 1756.94 453.715 1754.53 450.631C1750.94 446.129 1752.38 443.12 1758.04 442.774C1762.21 442.425 1766.4 442.499 1770.55 442.994C1778.67 444.186 1786.13 446.899 1789.77 455.265C1790.62 457.254 1791.71 456.43 1792.87 455.736C1805.24 448.296 1817.98 448.531 1830.97 453.927C1833.31 454.885 1835.63 455.902 1837.94 456.901C1837.56 456.241 1837.09 455.634 1836.55 455.097C1827.56 447.886 1818.75 440.144 1806.9 437.663C1797.83 435.776 1791.96 429.419 1786.85 422.372C1785.9 421.062 1786.44 418.663 1786.29 416.767C1787.86 416.63 1789.44 416.691 1791 416.95C1800.36 419.619 1809.03 424.299 1816.4 430.663C1816.24 428.623 1816.03 426.807 1815.94 424.975C1815.48 419.616 1817.05 414.284 1820.34 410.033C1823.51 405.997 1827.27 406.207 1828.56 410.719C1830.16 416.264 1831.16 421.966 1831.54 427.725C1831.74 429.989 1831.37 432.265 1830.47 434.348C1829.56 436.432 1828.16 438.258 1826.38 439.663C1823.76 441.646 1824.49 442.267 1826.67 443.513C1828.72 444.605 1830.64 445.928 1832.39 447.455C1836.42 451.082 1840.23 454.942 1843.81 459.015C1846.46 462.499 1848.89 466.143 1851.08 469.927C1851.66 467.332 1851.93 464.678 1851.89 462.019C1852.7 451.927 1857.09 448.299 1863.78 446.074C1867.48 444.854 1868.73 446.069 1868.44 449.857C1867.48 459.516 1864.98 468.525 1856.96 474.918C1855.76 475.884 1855.34 476.399 1856.04 478.051C1857.63 481.551 1858.48 485.341 1858.54 489.183C1858.6 493.026 1857.86 496.837 1856.38 500.38C1853.18 508.179 1849.45 515.789 1845.7 523.391C1841.63 531.05 1838.68 539.257 1836.96 547.76C1839.74 546.362 1842.32 544.598 1844.63 542.514C1850.74 536.725 1856.39 530.415 1862.8 524.974C1864.6 523.684 1865.96 521.868 1866.68 519.775C1867.41 517.682 1867.47 515.415 1866.85 513.285C1865.82 508.266 1865.27 503.16 1865.2 498.038C1865.25 495.202 1865.86 492.404 1867 489.807C1868.14 487.21 1869.77 484.864 1871.82 482.906C1874.5 480.169 1876.85 480.722 1878.19 484.193C1878.5 485.135 1878.74 486.103 1878.89 487.086C1880.63 496.347 1879.65 505.909 1876.06 514.615L1881.13 512.929C1887.11 510.968 1893.12 509.851 1899 512.908C1899.83 513.292 1900.58 513.851 1901.18 514.547C1901.78 515.243 1902.23 516.06 1902.49 516.943C1902.3 517.871 1901.91 518.745 1901.34 519.502C1900.77 520.259 1900.04 520.881 1899.2 521.324C1895.29 523.517 1890.98 524.91 1886.52 525.423C1882.07 525.935 1877.55 525.555 1873.24 524.307C1871.93 523.82 1870.51 523.741 1869.16 524.079C1867.81 524.416 1866.59 525.156 1865.67 526.199C1859.85 532.038 1854.03 537.876 1848.06 543.579C1844.97 546.505 1842.05 549.709 1837.41 550.523C1836.76 550.789 1836.19 551.21 1835.74 551.75C1835.29 552.29 1834.99 552.931 1834.84 553.619C1833.9 562.843 1832.38 572.131 1832.67 581.34C1833.02 598.057 1838.67 614.237 1848.82 627.534C1852.38 632.248 1860.34 638.915 1864.63 640.257C1863.77 637.999 1862.78 635.547 1861.91 633.049C1860.87 629.254 1858.45 625.987 1855.11 623.899C1850.79 621.314 1847.43 617.373 1845.57 612.689C1843.83 608.434 1843.06 604.045 1845.24 599.711C1847.3 595.741 1850.16 595.378 1852.04 599.308C1854.29 604.09 1856.25 609.009 1857.89 614.037C1858.94 617.053 1859.45 620.255 1860.2 623.366L1861.28 623.216C1861.21 621.469 1861.22 619.727 1861.09 617.993C1860.39 608.674 1865.16 604.283 1872.17 600.259C1873.88 599.272 1875.86 599.02 1875.75 602.163C1875.65 611.568 1874.24 620.398 1865.8 626.411C1865.27 626.844 1864.84 627.392 1864.55 628.014C1864.27 628.636 1864.12 629.316 1864.14 630.002C1865.82 639.994 1871.37 645.322 1881.31 646.878C1882.95 647.152 1884.61 647.273 1886.27 647.238C1913.44 646.434 1932.69 633.285 1944.4 609.135C1948.7 600.795 1950.25 591.304 1948.83 582.021C1948.03 577.248 1945.91 573.314 1941.41 571.57C1935.42 569.251 1929.15 567.487 1922.97 565.747C1921.86 565.418 1920.22 566.391 1919.04 567.096C1913.56 570.259 1908.42 573.999 1902.86 576.936C1897.3 579.873 1891.14 581.046 1885.36 577.118C1883.6 575.923 1880.73 574.458 1881.87 571.687C1883.02 570.025 1884.71 568.813 1886.65 568.257C1893.14 565.727 1899.71 563.471 1906.05 561.199C1903.09 558.422 1900.36 556.053 1897.92 553.495C1897.61 553.037 1897.41 552.513 1897.34 551.964C1897.28 551.416 1897.34 550.86 1897.53 550.343C1897.83 549.748 1899.49 549.438 1900.44 549.631C1908.8 551.252 1917.09 553.04 1922.26 560.921C1922.87 561.72 1923.72 562.302 1924.68 562.577C1931.14 564.55 1937.64 566.407 1944.27 568.38C1939.35 561.302 1934.01 554.461 1926.6 549.782C1921.41 546.501 1916.01 543.493 1909.69 543.002C1897.9 542.018 1887.48 545.753 1877.89 552.258C1877.55 552.562 1877.28 552.93 1877.09 553.342C1876.91 553.753 1876.8 554.199 1876.79 554.652C1876.72 561.265 1873.32 566.306 1869.28 571.02C1865.24 575.733 1861.43 579.942 1857.38 584.29C1856.31 585.18 1855.12 585.923 1853.85 586.501C1853 585.196 1852.37 583.757 1851.99 582.244C1851.48 574.185 1854.15 566.253 1859.41 560.147C1859.84 559.65 1860.34 559.216 1860.74 558.712C1861.14 558.207 1861.24 557.903 1861.07 558.172C1856.72 558.007 1852.29 558.01 1847.89 557.598C1847.29 557.422 1846.74 557.108 1846.29 556.68C1845.83 556.252 1845.49 555.723 1845.28 555.136C1845.05 554.447 1846.08 552.962 1846.95 552.41C1850 550.112 1853.33 548.193 1856.85 546.695C1862.34 544.84 1868.1 543.67 1873.31 548.104C1873.77 548.337 1874.27 548.465 1874.79 548.481C1875.3 548.497 1875.81 548.4 1876.29 548.197C1879.04 547.052 1881.69 545.626 1884.4 544.359C1894.39 539.754 1904.69 537.604 1915.65 540.378C1914.82 539.369 1914.02 538.368 1913.17 537.37C1910.72 534.761 1908.89 531.63 1907.82 528.211C1906.75 524.793 1906.47 521.177 1907 517.638C1907.49 514.656 1908.92 513.926 1910.85 515.716C1918.63 522.308 1923.83 531.447 1925.51 541.506C1925.61 542.662 1925.98 543.778 1926.59 544.766C1927.2 545.754 1928.03 546.586 1929.02 547.195C1938.11 553.852 1945.61 561.777 1949.68 572.648C1952.56 580.375 1953.5 588.683 1952.44 596.853C1954.79 591.278 1956.94 585.725 1958.71 580.04C1959.77 576.6 1961.73 572.414 1960.61 569.566C1959.66 567.015 1955.21 565.662 1952.21 563.945C1943.83 559.16 1939.48 552.097 1940.01 542.339C1940.13 539.965 1939.76 536.552 1942.78 536.2C1944.34 536.021 1946.65 538.356 1947.93 540.051C1951.94 545.422 1955.65 551.022 1959.69 556.872C1959.12 553.204 1959.8 549.451 1961.61 546.217C1963.43 542.983 1966.28 540.454 1969.7 539.038C1970.94 538.445 1973.19 537.667 1973.67 538.187C1974.56 539.429 1974.97 540.945 1974.85 542.466C1974.19 551.953 1970.33 560.378 1966.31 568.852C1964.07 573.545 1962.5 578.497 1960.6 583.285C1964.09 581.818 1966.62 579.936 1969.38 578.493C1972.06 576.987 1975.02 576.032 1978.07 575.686C1981.13 575.339 1984.23 575.607 1987.18 576.475C1987.76 576.694 1988.29 577.033 1988.73 577.469C1989.18 577.905 1989.53 578.428 1989.76 579.006C1989.98 579.695 1988.98 581.044 1988.2 581.763C1986.6 583.219 1984.88 584.55 1983.07 585.743C1977.53 589.391 1971.92 593.745 1964.92 592.9C1959.07 592.16 1956.52 594.1 1954.47 599.302C1952.67 603.815 1948.97 607.44 1946.91 611.93C1940.77 625.246 1930.54 636.241 1917.7 643.305C1902.24 651.659 1885.27 653.021 1868.06 651.676C1864.92 651.319 1861.81 650.771 1858.74 650.035C1856.42 649.586 1855.01 649.708 1854.13 652.694C1852.91 655.864 1851.12 658.781 1848.85 661.301C1843.28 667.74 1834.65 667.887 1827.42 670.894C1825.21 671.824 1824.52 670.114 1825.47 667.979ZM1823.49 613.085C1819.44 611.776 1815.2 610.998 1810.26 609.81C1814.53 618.581 1826.67 623.402 1835.04 620.183C1835.57 619.857 1836.03 619.438 1836.41 618.947C1835.96 618.493 1835.46 618.099 1834.91 617.776C1831.03 616.197 1827.32 614.397 1823.4 613.139L1823.49 613.085ZM1813.11 589.581C1816.51 600.396 1823.81 606.052 1832.93 611.034C1829.34 600.876 1822.36 594.911 1813.02 589.635L1813.11 589.581ZM1813.48 514.95C1812.92 514.212 1812.11 513.703 1811.2 513.518C1810.88 513.479 1810.12 514.659 1809.82 515.427C1807.51 522.569 1808.97 529.515 1811.33 536.311C1812.49 539.657 1814.09 542.853 1815.88 547.028C1821.02 535.13 1819.99 524.81 1813.4 515.023L1813.48 514.95ZM1826.89 482.407C1820.92 475.68 1813.24 472.499 1804 471.382C1804.92 473.501 1806.26 475.413 1807.93 477.005C1809.6 478.596 1811.58 479.835 1813.74 480.647C1817.53 482.25 1821.54 483.359 1825.47 484.588C1826.25 484.706 1827.04 484.701 1827.82 484.574C1827.57 483.805 1827.19 483.082 1826.71 482.437L1826.89 482.407ZM1834.78 480.129C1836.22 474.994 1835.7 469.504 1833.32 464.727C1832.26 466.998 1831.47 469.386 1830.96 471.842C1830.9 474.647 1831.16 477.45 1831.75 480.194C1832.04 481.495 1832.42 482.775 1832.9 484.022C1833.59 482.794 1834.16 481.5 1834.6 480.159L1834.78 480.129ZM1768.88 472.042C1767.31 474.896 1766.08 477.915 1765.18 481.045C1764.85 482.133 1765.53 483.526 1765.74 484.793L1769.1 483.151C1775.12 477.964 1782 473.024 1785.99 465.235C1786.51 464.399 1786.88 463.487 1787.11 462.533C1787.16 462.154 1785.78 461.169 1785.63 461.255C1779.95 465.151 1772.44 465.866 1768.7 472.072L1768.88 472.042ZM1778.26 448.319C1771.91 445.511 1765.09 445.502 1758.29 445.809C1757.52 445.966 1756.79 446.246 1756.12 446.64C1756.34 447.512 1756.7 448.341 1757.19 449.097C1760.87 453.436 1766.11 456.15 1771.78 456.65C1775.67 456.881 1779.7 456.613 1783.64 456.87C1787.58 457.127 1786.73 455.705 1785.57 453.051C1783.21 451.268 1780.71 449.695 1778.08 448.349L1778.26 448.319ZM1815.19 435.083C1811.63 431.92 1807.88 428.971 1803.97 426.253C1800.24 424.084 1796.36 422.179 1792.36 420.553C1791.59 420.341 1790.79 420.237 1789.98 420.243L1790.34 422.713C1794.03 427.738 1799.1 431.585 1804.93 433.787C1807.96 434.742 1810.89 435.781 1813.89 436.729C1814.35 436.804 1814.82 436.815 1815.29 436.761C1815.27 436.204 1815.38 435.37 1815.05 435.092L1815.19 435.083ZM1823.17 438.093C1825.24 436.037 1826.89 433.592 1828.03 430.897C1829.94 424.607 1827.56 418.513 1826.04 412.494C1825.15 410.258 1823.57 410.477 1822.8 412.062C1821.02 415.013 1819.85 418.286 1819.35 421.695C1819.45 426.805 1819.91 431.902 1820.72 436.948C1820.74 438.901 1821.86 439.469 1823.02 438.101L1823.17 438.093ZM1838.16 457.118C1838.3 457.36 1838.57 457.527 1838.79 457.726C1838.72 457.614 1838.79 457.398 1838.75 457.372C1838.56 457.273 1838.37 457.189 1838.16 457.118ZM1856.93 471.09C1860.74 466.705 1863.36 461.402 1864.51 455.7C1864.69 454.893 1864.81 454.072 1864.85 453.245C1864.92 451.865 1864.88 450.502 1864.93 449.103L1859.66 450.138C1857.91 453.064 1856.47 456.171 1855.38 459.406C1854.83 462.999 1854.66 466.64 1854.87 470.27C1854.93 470.846 1855.09 471.409 1855.33 471.935C1855.92 471.761 1856.46 471.474 1856.93 471.09ZM1896.7 518.97C1897.5 518.441 1898.27 517.859 1898.99 517.228C1898.09 516.56 1897.19 515.344 1896.28 515.32C1892.06 515.075 1887.82 515.252 1883.64 515.849C1880.04 516.922 1876.56 518.333 1873.24 520.064L1873.69 521.221C1881.49 522.172 1889.31 523.113 1896.68 518.933L1896.7 518.97ZM1874.12 510.776C1876.74 503.072 1877.28 494.81 1875.69 486.823C1875.22 485.754 1874.63 484.737 1873.94 483.791C1872.19 486.893 1870.59 490.083 1869.16 493.349C1867.04 499.035 1868.35 504.807 1869.33 510.493C1869.69 512.54 1870.29 514.524 1870.79 516.544C1872.08 514.731 1873.19 512.8 1874.12 510.776ZM1811.29 549.407C1803.68 544.635 1794.81 542.262 1785.84 542.595C1783.77 542.699 1781.73 543.079 1779.67 543.327C1789.12 548.144 1798.18 553.725 1809.09 553.954C1809.41 554 1809.75 553.984 1810.07 553.905C1811.69 553.271 1813.27 552.58 1814.86 551.908C1813.7 550.986 1812.5 550.126 1811.25 549.333L1811.29 549.407ZM1866.64 621.638C1868.66 619.484 1870.23 616.946 1871.25 614.174C1872.27 611.401 1872.73 608.451 1872.6 605.496C1872.6 605.246 1871.2 604.665 1870.73 604.885C1869.06 605.608 1867.61 606.752 1866.52 608.204C1865.43 609.657 1864.73 611.369 1864.5 613.173C1864.29 616.104 1864.27 619.045 1864.46 621.979C1865.47 621.842 1866.3 621.956 1866.69 621.731L1866.64 621.638ZM1901.37 566.509C1896.83 567.913 1892.38 569.64 1887.89 571.262C1887.16 571.564 1886.46 571.914 1885.78 572.312C1886.22 573.12 1886.82 573.836 1887.54 574.42C1889.75 575.546 1892.22 576.073 1894.7 575.948C1897.18 575.823 1899.58 575.051 1901.66 573.707C1907.04 570.8 1912.25 567.595 1917.6 564.507C1911.8 562.398 1906.61 564.87 1901.37 566.509ZM1903.39 552.545L1902.79 553.831C1906.66 557.652 1911.03 560.259 1916.69 559.895L1917.22 558.7L1903.39 552.545ZM1868.78 549.008C1863.18 547.407 1858.09 549.229 1852.45 551.689L1850.6 554.147C1851.68 554.438 1852.87 555.166 1853.86 554.944C1858.95 553.767 1864 552.39 1869.05 551.013C1869.49 550.795 1869.87 550.487 1870.18 550.108C1869.72 549.732 1869.31 549.15 1868.78 549.008ZM1868.64 556.53C1860.95 562.336 1854.98 569.973 1855.51 581.304C1862.04 574.181 1869.05 568.522 1872.63 560.055C1873.22 558.207 1873.63 556.308 1873.86 554.383C1872.03 554.855 1870.26 555.552 1868.6 556.456L1868.64 556.53ZM1910.2 519.016C1909.48 527.718 1913.2 534.251 1922.67 541.434C1920.57 532.961 1916.25 525.199 1910.16 518.942L1910.2 519.016ZM1967.75 558.425C1969.41 553.592 1970.73 548.617 1972.11 543.677C1972.17 542.881 1972.11 542.079 1971.92 541.302L1970.03 541.799C1964.64 545.881 1961.97 550.868 1962.91 557.422C1963.26 559.97 1963.78 562.498 1964.24 565.04C1965.6 562.943 1966.77 560.729 1967.75 558.425ZM1945.45 541.853C1944.93 541.374 1944.38 540.927 1943.81 540.516C1943.5 541.086 1943.28 541.699 1943.15 542.335C1943.01 548.741 1944.57 554.489 1950.01 558.496C1952.55 560.327 1955.23 561.928 1958.54 564.089C1956.16 555.646 1951.65 547.955 1945.44 541.757L1945.45 541.853ZM1962.35 590.166C1968.65 590.966 1973.86 588.137 1978.79 584.765C1981.08 583.446 1983.36 582.127 1985.65 580.809C1986.02 580.53 1986.36 580.203 1986.64 579.835C1986.17 579.54 1985.65 579.303 1985.12 579.127C1980.58 578.053 1975.81 578.813 1971.83 581.243C1968.27 583.302 1964.89 585.648 1961.46 587.9C1960.97 588.335 1960.53 588.83 1960.16 589.373C1960.86 589.692 1961.59 589.926 1962.34 590.07L1962.35 590.166ZM1856.21 618.283C1854.33 613.237 1852.48 608.181 1850.52 603.16C1850.05 602.366 1849.47 601.651 1848.78 601.041C1848.18 601.938 1847.73 602.926 1847.44 603.967C1846.84 610.516 1850.3 615.045 1854.71 619.045L1856.21 618.283ZM1829.15 637.725C1828.69 638.172 1828.36 638.724 1828.17 639.332C1830.07 641.038 1831.85 643.481 1834.11 644.136C1838.65 645.234 1843.25 646.041 1847.89 646.552C1842.83 641.089 1835.82 639.725 1829.11 637.746L1829.15 637.725ZM1848.71 646.599L1848.31 646.633L1848.38 646.763C1848.38 646.763 1848.6 646.663 1848.67 646.621L1848.71 646.599ZM1850.57 652.396C1843.53 656.806 1834.45 657.383 1830.07 665.792C1840.66 665.087 1848.4 660.096 1850.53 652.417L1850.57 652.396Z" fill="black" fill-opacity="0.08"/>
</g>
</g>
<defs>
<clipPath id="clip0_1_16">
<rect width="1920" height="847" fill="white"/>
</clipPath>
<clipPath id="clip1_1_16">
<rect width="132.34" height="66.6102" fill="white" transform="matrix(-0.866025 0.5 0.5 0.866025 86.1641 614.624)"/>
</clipPath>
<clipPath id="clip2_1_16">
<rect width="195" height="262" fill="white" transform="matrix(-0.866025 0.5 0.5 0.866025 1874.44 365.801)"/>
</clipPath>
</defs>
</svg>
